<?xml version="1.0" standalone="no"?>
<!DOCTYPE svg PUBLIC "-//W3C//DTD SVG 20010904//EN"
 "http://www.w3.org/TR/2001/REC-SVG-20010904/DTD/svg10.dtd">
<svg version="1.0" xmlns="http://www.w3.org/2000/svg"
 width="360.000000pt" height="360.000000pt" viewBox="0 0 360.000000 360.000000"
 preserveAspectRatio="xMidYMid meet">
<metadata>
Created by potrace 1.14, written by Peter Selinger 2001-2017
</metadata>
<g transform="translate(0.000000,360.000000) scale(0.100000,-0.100000)"
fill="#000000" stroke="none">
<path d="M2365 3208 c-73 -17 -84 -23 -127 -68 -52 -57 -75 -61 -155 -33 -37
13 -85 17 -213 17 -144 1 -176 -2 -251 -23 l-85 -24 -52 41 c-89 70 -214 90
-353 58 -156 -37 -206 -80 -265 -228 -17 -42 -27 -91 -31 -148 l-6 -85 -63
-66 c-61 -64 -124 -171 -124 -211 0 -10 -14 -51 -30 -93 -35 -88 -38 -150 -15
-283 55 -309 67 -331 253 -487 51 -43 91 -83 89 -89 -6 -18 -99 -36 -152 -30
-37 4 -83 -3 -180 -26 -181 -44 -366 -99 -393 -116 -28 -18 -28 -52 -2 -129
30 -87 42 -97 110 -89 l56 6 18 -41 c33 -72 66 -84 153 -56 17 5 24 3 29 -11
23 -63 57 -67 191 -22 70 23 100 29 112 21 50 -31 136 -37 291 -21 23 3 25 0
37 -92 20 -145 30 -179 77 -250 54 -81 92 -117 137 -131 57 -17 291 -24 319
-9 77 41 227 46 280 9 40 -28 126 -43 169 -31 20 6 52 13 72 16 20 2 68 22
106 44 38 21 81 42 95 45 30 8 109 75 125 108 7 13 22 50 33 82 16 43 26 57
41 57 42 0 90 29 103 62 25 61 39 216 26 293 -12 76 -56 250 -71 277 -11 20
17 50 82 89 111 67 209 167 249 254 32 69 68 216 75 310 10 126 -16 337 -49
396 -13 24 -27 55 -31 69 -11 37 -72 108 -126 147 l-48 34 6 82 c5 76 3 87
-26 157 -44 103 -97 164 -157 179 -26 7 -68 23 -95 36 -59 30 -119 31 -234 3z
m202 -63 c12 -8 51 -24 86 -35 71 -22 95 -48 137 -148 19 -44 22 -64 17 -120
-4 -37 -9 -77 -13 -89 -7 -24 2 -33 92 -98 53 -37 67 -54 103 -127 32 -63 46
-105 57 -178 16 -108 20 -212 9 -285 -9 -63 -53 -221 -72 -258 -26 -51 -146
-169 -192 -189 -25 -10 -51 -27 -58 -37 -7 -10 -28 -22 -46 -25 -19 -4 -72
-23 -117 -42 -125 -55 -355 -124 -408 -124 -26 0 -83 -4 -127 -10 -51 -6 -158
-6 -295 -1 -188 8 -229 13 -330 39 -64 17 -147 35 -185 40 -113 16 -229 78
-376 202 -113 95 -143 155 -176 356 -26 159 -23 251 12 349 58 166 89 215 184
290 50 39 66 75 40 91 -23 14 -4 124 37 209 50 104 92 133 220 158 94 18 154
14 226 -16 32 -13 88 -69 88 -87 0 -18 33 -18 78 -1 26 11 92 29 147 41 84 18
117 21 203 15 57 -3 124 -12 150 -20 26 -7 73 -16 104 -20 l58 -6 51 53 c42
45 60 56 112 69 82 22 157 23 184 4z m-1847 -1773 c0 -5 -9 -35 -20 -67 -30
-87 -27 -162 9 -216 16 -24 28 -46 25 -50 -10 -16 -75 -31 -88 -20 -10 8 -34
77 -62 179 -7 24 -35 25 -107 4 -40 -12 -98 -24 -129 -28 -56 -6 -58 -5 -68
21 -16 43 -12 65 15 75 14 5 98 29 187 54 203 55 238 62 238 48z m936 -72 c41
0 42 -8 5 -37 l-29 -23 -33 23 c-46 32 -51 52 -9 44 18 -4 48 -7 66 -7z m324
-8 c0 -5 -9 -17 -21 -28 -18 -17 -23 -17 -46 -4 -46 26 -40 40 16 40 28 0 51
-4 51 -8z m-401 -109 c40 -27 68 -29 99 -7 21 14 22 14 22 -10 0 -14 -5 -48
-11 -76 -9 -42 -8 -55 5 -75 18 -28 16 -29 -76 -40 l-58 -6 0 33 c0 28 -8 70
-37 197 -6 26 -7 26 56 -16z m461 34 c0 -17 -32 -213 -36 -216 -2 -2 -29 -6
-60 -9 l-57 -5 6 29 c3 17 -4 56 -15 92 -23 70 -17 93 20 73 32 -17 55 -13 92
14 30 22 50 31 50 22z m-1512 -111 c4 -20 -21 -46 -44 -46 -23 0 -28 42 -8 57
24 18 48 13 52 -11z m1797 -505 c18 -7 17 -9 -9 -26 -34 -23 -114 -39 -184
-38 -40 1 -63 8 -91 27 -20 14 -46 27 -57 28 -20 2 171 13 266 15 30 1 64 -2
75 -6z m-566 -10 c25 -16 -54 -41 -128 -41 -93 0 -203 18 -221 35 -13 13 7 15
160 15 96 0 181 -4 189 -9z"/>
<path d="M1381 2496 c-21 -25 3 -50 67 -73 49 -18 63 -19 77 -9 29 21 10 51
-47 75 -60 25 -81 26 -97 7z"/>
<path d="M2090 2474 c-93 -30 -101 -36 -98 -63 3 -23 7 -26 43 -25 57 1 115
28 115 53 0 16 -28 44 -42 40 -2 0 -10 -3 -18 -5z"/>
<path d="M1235 2367 c-15 -12 -17 -24 -13 -89 10 -150 76 -212 220 -206 68 3
80 6 115 34 21 17 46 47 56 67 9 21 20 37 25 37 4 0 47 5 95 11 105 13 134 4
157 -44 19 -41 111 -103 172 -116 60 -13 117 4 199 60 42 28 64 52 83 91 32
63 33 100 4 140 l-21 31 -91 -6 c-277 -19 -309 -24 -331 -49 -20 -23 -30 -25
-133 -30 -99 -5 -113 -4 -128 13 -18 20 -108 54 -122 45 -4 -2 -41 2 -82 10
-94 18 -181 18 -205 1z"/>
<path d="M1752 2098 c-7 -7 -12 -22 -12 -34 0 -27 -15 -40 -65 -56 -42 -14
-55 -38 -34 -64 16 -20 73 -11 111 17 32 23 51 24 81 5 36 -23 84 -27 102 -10
30 30 15 55 -40 68 -43 10 -74 33 -85 62 -10 26 -38 32 -58 12z"/>
</g>
</svg>
